<svg xmlns="http://www.w3.org/2000/svg" viewBox="0 0 920 600" font-family="-apple-system, Segoe UI, Roboto, sans-serif">
  <rect width="920" height="600" fill="#ffffff"/>
  <!-- sidebar -->
  <rect x="0" y="0" width="210" height="600" fill="#f5f7fb"/>
  <text x="24" y="42" font-size="15" font-weight="700" fill="#17202a">Navigation</text>
  <text x="24" y="74" font-size="12" fill="#1f4e79" font-weight="600">● Home (Landing)</text>
  <text x="24" y="98" font-size="12" fill="#5b6b7b">○ Cap Allocation Brief</text>
  <text x="24" y="122" font-size="12" fill="#5b6b7b">○ Fantasy Player Board</text>
  <text x="24" y="146" font-size="12" fill="#5b6b7b">○ Player Detail</text>
  <text x="24" y="186" font-size="13" font-weight="700" fill="#17202a">Player search</text>
  <rect x="24" y="198" width="162" height="28" rx="6" fill="#ffffff" stroke="#cfd8e3"/>
  <text x="34" y="217" font-size="11" fill="#9aa7b4">type a player name…</text>
  <!-- hero -->
  <text x="240" y="50" font-size="24" font-weight="800" fill="#17202a">NFL Player Value &amp; Fantasy Projection Lab</text>
  <text x="240" y="78" font-size="13" fill="#5b6b7b">Weekly fantasy forecasting · contract-adjusted surplus · rookie opportunity · QB-injury causal study</text>
  <line x1="240" y1="96" x2="896" y2="96" stroke="#e6ebf1"/>
  <!-- four cards -->
  <g>
    <rect x="240" y="116" width="318" height="150" rx="10" fill="#ffffff" stroke="#dde5ee"/>
    <text x="258" y="142" font-size="11" font-weight="700" fill="#1f4e79">FANTASY FORECASTING</text>
    <text x="258" y="166" font-size="13" font-weight="700" fill="#17202a">Leakage-safe weekly projections</text>
    <text x="258" y="190" font-size="11" fill="#5b6b7b">• Weekly RMSE reduced 1.27% (6.020→5.944)</text>
    <text x="258" y="208" font-size="11" fill="#5b6b7b">• Live upcoming-week scoring</text>
    <text x="258" y="226" font-size="11" fill="#5b6b7b">• Per-position conformal intervals</text>
    <rect x="258" y="238" width="200" height="20" rx="5" fill="#1f4e79"/>
    <text x="268" y="252" font-size="10" fill="#ffffff" font-weight="600">Open Fantasy Player Board</text>
  </g>
  <g>
    <rect x="578" y="116" width="318" height="150" rx="10" fill="#ffffff" stroke="#dde5ee"/>
    <text x="596" y="142" font-size="11" font-weight="700" fill="#1f4e79">PLAYER VALUE / CAP SURPLUS</text>
    <text x="596" y="166" font-size="13" font-weight="700" fill="#17202a">Reconstructed cap-hit surplus</text>
    <text x="596" y="190" font-size="11" fill="#5b6b7b">• Season-specific cap-hit estimates</text>
    <text x="596" y="208" font-size="11" fill="#5b6b7b">• Brock Purdy 2023 tops surplus board</text>
    <text x="596" y="226" font-size="11" fill="#5b6b7b">• Early-extension stars priced fairly</text>
    <rect x="596" y="238" width="190" height="20" rx="5" fill="#1f4e79"/>
    <text x="606" y="252" font-size="10" fill="#ffffff" font-weight="600">Open Cap Allocation Brief</text>
  </g>
  <g>
    <rect x="240" y="282" width="318" height="150" rx="10" fill="#ffffff" stroke="#dde5ee"/>
    <text x="258" y="308" font-size="11" font-weight="700" fill="#1f4e79">ROOKIE OPPORTUNITY MODEL</text>
    <text x="258" y="332" font-size="13" font-weight="700" fill="#17202a">Rookie QB incumbent context</text>
    <text x="258" y="356" font-size="11" fill="#5b6b7b">• Combine features tested, not kept</text>
    <text x="258" y="374" font-size="11" fill="#5b6b7b">• Incumbent-context core kept</text>
    <text x="258" y="392" font-size="11" fill="#5b6b7b">• Jordan Love P(plays) 0.611 → 0.513</text>
    <rect x="258" y="404" width="150" height="20" rx="5" fill="#1f4e79"/>
    <text x="268" y="418" font-size="10" fill="#ffffff" font-weight="600">Open Rookie Model</text>
  </g>
  <g>
    <rect x="578" y="282" width="318" height="150" rx="10" fill="#ffffff" stroke="#dde5ee"/>
    <text x="596" y="308" font-size="11" font-weight="700" fill="#1f4e79">QB INJURY CAUSAL STUDY</text>
    <text x="596" y="332" font-size="13" font-weight="700" fill="#17202a">First injury-report timing</text>
    <text x="596" y="356" font-size="11" fill="#5b6b7b">• Out-only treatment found little</text>
    <text x="596" y="374" font-size="11" fill="#5b6b7b">• First-report events 19 → 104</text>
    <text x="596" y="392" font-size="11" fill="#5b6b7b">• ATT ≈ −0.58 PPG (suggestive)</text>
    <rect x="596" y="404" width="150" height="20" rx="5" fill="#1f4e79"/>
    <text x="606" y="418" font-size="10" fill="#ffffff" font-weight="600">Open Causal Study</text>
  </g>
  <!-- methodology strip -->
  <line x1="240" y1="456" x2="896" y2="456" stroke="#e6ebf1"/>
  <text x="240" y="482" font-size="11" fill="#5b6b7b">✓ Leakage-safe features  ·  ✓ Time-based validation  ·  ✓ Negative results documented  ·  ✓ Source/quality flags  ·  ✓ Tested</text>
  <rect x="240" y="502" width="656" height="30" rx="6" fill="#f5f7fb" stroke="#dde5ee"/>
  <text x="252" y="521" font-size="11" fill="#17202a">▸ How to use this app</text>
  <text x="240" y="566" font-size="10" fill="#9aa7b4">Layout preview of the Streamlit landing page. Run the app locally for a live, interactive view.</text>
</svg>
